<svg id="Layer_1" data-name="Layer 1" xmlns="http://www.w3.org/2000/svg" viewBox="0 0 252 101"><defs><style>.cls-1{fill:#007eff;}.cls-2{fill:#fc0;}</style></defs><path class="cls-1" d="M88.36,47.66A6.81,6.81,0,0,0,85.54,45a8.79,8.79,0,0,0-4.13-.95,11.39,11.39,0,0,0-5.66,1.43,10.39,10.39,0,0,0-4,3.94A10.86,10.86,0,0,0,70.32,55a7.79,7.79,0,0,0,1,3.95,6.68,6.68,0,0,0,2.78,2.64,8.84,8.84,0,0,0,4.12.93,11.52,11.52,0,0,0,5.67-1.41,10.49,10.49,0,0,0,4-3.91,10.76,10.76,0,0,0,1.46-5.58A7.7,7.7,0,0,0,88.36,47.66ZM83.48,55.2a6.07,6.07,0,0,1-.4.76,6.14,6.14,0,0,1-1.54,1.71,4.49,4.49,0,0,1-2.82.95,3.35,3.35,0,0,1-2.5-1,3.85,3.85,0,0,1-1-2.82,7.86,7.86,0,0,1,.67-3.21,6.29,6.29,0,0,1,1.89-2.48,4.42,4.42,0,0,1,2.82-1,3.47,3.47,0,0,1,2.54,1,3.4,3.4,0,0,1,.9,1.78,5.42,5.42,0,0,1,.1,1.1A7.48,7.48,0,0,1,83.48,55.2Z"/><path class="cls-2" d="M243.83,54.74a11.92,11.92,0,0,0,.41-3.15,2.62,2.62,0,0,0,0-.28v0a7.88,7.88,0,0,0-.94-3.66A6.68,6.68,0,0,0,240.63,45a7.93,7.93,0,0,0-3.9-.95,10.24,10.24,0,0,0-5.34,1.43,10,10,0,0,0-2.9,2.6,10.38,10.38,0,0,0-.87,1.35,9.78,9.78,0,0,0-.81,1.89s0,0,0,0a12,12,0,0,0-.55,3.43V55a8.17,8.17,0,0,0,.93,4,6.49,6.49,0,0,0,2.63,2.64,7.92,7.92,0,0,0,3.88.93,10.3,10.3,0,0,0,5.36-1.42,10.09,10.09,0,0,0,2.45-2l-3.53-3a6.12,6.12,0,0,1-1.22,1.36,4,4,0,0,1-2.67,1,3.06,3.06,0,0,1-2.36-1,4.08,4.08,0,0,1-.92-2.66v0Zm-12.42-3.45a.14.14,0,0,0,0-.06c.07-.17.15-.33.23-.49a6.24,6.24,0,0,1,1.56-2.06,4,4,0,0,1,2.66-1,3.1,3.1,0,0,1,2.4,1,3.64,3.64,0,0,1,.86,1.82,5.62,5.62,0,0,1,.08.73v0h-7.81Z"/><path class="cls-1" d="M101.88,57.69a4.57,4.57,0,0,1-2.82,1,3.38,3.38,0,0,1-2.52-1,3.87,3.87,0,0,1-1-2.83,8,8,0,0,1,.67-3.23,6.26,6.26,0,0,1,1.9-2.49,4.43,4.43,0,0,1,2.83-1,3.49,3.49,0,0,1,2.55,1,3.44,3.44,0,0,1,.91,1.79L109,48.16l-.28-.53A7,7,0,0,0,105.91,45a8.9,8.9,0,0,0-4.15-.95,11.48,11.48,0,0,0-5.69,1.43,10.49,10.49,0,0,0-4,4A11,11,0,0,0,90.62,55a7.86,7.86,0,0,0,1,4,6.7,6.7,0,0,0,2.8,2.65,8.88,8.88,0,0,0,4.13.94,11.67,11.67,0,0,0,5.7-1.42,10.76,10.76,0,0,0,2.5-1.91l-3.49-2.95A6.54,6.54,0,0,1,101.88,57.69Z"/><polygon class="cls-1" points="120.41 53.1 126.15 62.51 120.22 62.49 116.48 56.19 114.73 53.17 112.29 62.51 107.37 62.51 114.16 37.02 120.09 34.19 115.17 51.55 117.63 49.32 123.41 44.06 129.65 44.02 120.41 53.1"/><path class="cls-2" d="M203.67,53.17l-1.08,4.26h1.47l-1.29,5.08h-2.32a3,3,0,0,1-2.88-3.71l.35-1.37,5.36-20,5.5-3.23-4.68,17.4Z"/><path class="cls-1" d="M160.94,44.32l-1.21,4.52-4.18,0-.7,2.62-.43,1.6-1.1,4.3h1.49l-1.3,5.12h-2.35a3,3,0,0,1-2.9-3.75l.36-1.37,2.28-8.51v0l-4.18,0,1.21-4.52,4.18,0L154,37.19l5.55-3-2.8,10.13v0Z"/><polygon class="cls-1" points="154.07 48.62 154.06 48.65 153.57 48.66 153.58 48.62 154.07 48.62"/><polygon class="cls-1" points="154.07 48.62 154.06 48.65 153.57 48.66 153.58 48.62 154.07 48.62"/><path class="cls-2" d="M193.65,44.05l-.15.52-.11.43-.1-.06a8.92,8.92,0,0,0-4.16-.95,11.88,11.88,0,0,0-3.81.6,10.9,10.9,0,0,0-1.88.84,10.52,10.52,0,0,0-4,4A11,11,0,0,0,178,55a7.91,7.91,0,0,0,1,4,6.76,6.76,0,0,0,2.8,2.65l0,0a6.22,6.22,0,0,0,6.38-.52c.35-.26.7-.53,1-.79l-.61,2.2h4.55l4.93-18,.14-.52Zm-2.12,7.68-1.19,4.32a3,3,0,0,1-1.07,1.62h0a4.55,4.55,0,0,1-2.83,1,3.62,3.62,0,0,1-1.77-.43,3.17,3.17,0,0,1-.75-.57,3.89,3.89,0,0,1-1-2.84,8,8,0,0,1,.68-3.23,6.26,6.26,0,0,1,1.9-2.49,4.43,4.43,0,0,1,2.83-1,3.46,3.46,0,0,1,2.56,1h0A2.69,2.69,0,0,1,191.53,51.73Z"/><path class="cls-2" d="M189.2,29.67l-1.89,6.06a2,2,0,0,1-.39.17,7.72,7.72,0,0,0-1.18.77,19,19,0,0,0-2.68,2.62,40.7,40.7,0,0,0-4.43,6.29c-1.53,2.6-2.86,5.3-4.2,8L170.74,61,170,62.51h-2.31L166,34.16h4.75l.93,15.51a73.64,73.64,0,0,1,5.63-9.94c2.58-3.62,5.75-7.17,9.77-9.22A8.88,8.88,0,0,1,189.2,29.67Z"/><path class="cls-2" d="M225.58,44l-2.14,9L223,54.91l-1.72,7.6h-4.93l.48-2.1c-.23.22-.48.43-.73.65a5.93,5.93,0,0,1-8.41-1c-1.51-1.83-1.22-3.65-.73-5.77l.53-2.3,1.15-5,.54-2.35.14-.59h5l-.67,2.84L212.14,53l-.44,1.88-.21.91a1.37,1.37,0,0,0,.29,1.2,3.29,3.29,0,0,0,.75.66,3.18,3.18,0,0,0,1.79.5,4.24,4.24,0,0,0,2.86-1.11h0a2.18,2.18,0,0,0,.66-1.12l1.68-7.26L220.6,44Z"/><path class="cls-2" d="M208.13,49.07l-1.28,4.82"/><path class="cls-1" d="M145,54.74a12.35,12.35,0,0,0,.4-3.15v-.3a8,8,0,0,0-.94-3.66A6.74,6.74,0,0,0,141.78,45a8,8,0,0,0-3.9-.95,10.19,10.19,0,0,0-5.35,1.44,10,10,0,0,0-2.9,2.59,10.38,10.38,0,0,0-.87,1.35,11.2,11.2,0,0,0-.81,1.89v0a11.67,11.67,0,0,0-.55,3.43v0a.81.81,0,0,0,0,.16v0a8.17,8.17,0,0,0,.93,4A6.55,6.55,0,0,0,131,61.58a8,8,0,0,0,3.89.93,10.36,10.36,0,0,0,5.36-1.42,10,10,0,0,0,2.44-2l-3.53-3a6.37,6.37,0,0,1-1.22,1.37,4.08,4.08,0,0,1-2.66,1,3.06,3.06,0,0,1-2.37-1,4.08,4.08,0,0,1-.92-2.66v0Zm-12.43-3.45,0-.06c.07-.17.14-.33.22-.49a6.1,6.1,0,0,1,1.56-2.05,4,4,0,0,1,2.67-1,3.1,3.1,0,0,1,2.39,1,3.56,3.56,0,0,1,.86,1.82c0,.23.07.48.09.73v0h-7.82Z"/><path class="cls-2" d="M22.31,40.58l-.25.44L22,40.58Z"/><polygon class="cls-2" points="57.38 33.82 56.35 37.25 17.5 37.25 16.69 34.26 16.57 33.82 15.7 30.57 8.69 30.57 7.76 27.14 18.34 27.14 19.26 30.57 20.13 33.82 57.38 33.82"/><polygon class="cls-2" points="50.18 59.11 49.26 62.54 24.3 62.54 23.38 59.11 50.18 59.11"/><path class="cls-2" d="M55.16,40.58,54.24,44l-.67,2.48-.92,3.43H44.23l-.92-3.43H50L50.68,44H22.87l1.69,6.27.56,2.08H52l-.92,3.44H22.49l-.93-3.44-.53-2-1.66-6.18L19.32,44l-.93-3.44H22l.11.44.25-.44Z"/><path class="cls-1" d="M47.26,65.29a4.67,4.67,0,1,0,1.32,6.47A4.67,4.67,0,0,0,47.26,65.29Zm-.73,5.11a2.21,2.21,0,1,1-.63-3.06A2.21,2.21,0,0,1,46.53,70.4Z"/><path class="cls-1" d="M31.59,65.29a4.67,4.67,0,1,0,1.33,6.47A4.67,4.67,0,0,0,31.59,65.29Zm-.73,5.11a2.21,2.21,0,1,1-.63-3.06A2.21,2.21,0,0,1,30.86,70.4Z"/><path class="cls-1" d="M72.75,39.57a7.11,7.11,0,0,0-4.17-5.14,8.18,8.18,0,0,0-2.67-.53c-.26,0-.53,0-.8,0l-8.6,0s0,0,0,0h0a.9.9,0,0,1,.32.93h0L49.32,62.49h4.53L56.35,53l5.49-.28a13.08,13.08,0,0,0,2.4-.48C69.41,50.64,74,45.19,72.75,39.57Zm-8.94,7.75a7.31,7.31,0,0,1-1.22.24l-4.82.23,2.73-9.88h4.15a4.75,4.75,0,0,1,1.35.26,3.44,3.44,0,0,1,2.1,2.47C68.72,43.33,66.42,46.57,63.81,47.32Z"/></svg>