<?xml version="1.0" encoding="utf-8"?>
<!-- Generator: Adobe Illustrator 24.3.0, SVG Export Plug-In . SVG Version: 6.00 Build 0)  -->
<svg version="1.1" id="Layer_1" xmlns="http://www.w3.org/2000/svg" xmlns:xlink="http://www.w3.org/1999/xlink" x="0px" y="0px"
	 viewBox="0 0 252 101" style="enable-background:new 0 0 252 101;" xml:space="preserve">
<style type="text/css">
	.st0{fill:#020202;}
	.st1{fill:#FFCC00;}
	.st2{fill:#007EFF;}
	.st3{fill:#FCFCFC;}
	.st4{fill:#FFFFFF;}
</style>
<g>
	<path class="st2" d="M95.85,75.25c-0.6-1.02-1.44-1.82-2.53-2.38c-1.09-0.57-2.33-0.85-3.72-0.85c-1.87,0-3.56,0.43-5.09,1.28
		c-1.52,0.86-2.72,2.04-3.58,3.54c-0.87,1.5-1.3,3.17-1.3,5c0,1.35,0.3,2.53,0.88,3.55c0.59,1.02,1.42,1.81,2.5,2.37
		c1.08,0.56,2.31,0.84,3.7,0.84c1.87,0,3.57-0.42,5.1-1.27c1.53-0.85,2.74-2.02,3.61-3.51c0.88-1.49,1.32-3.16,1.32-5.01
		C96.75,77.45,96.45,76.27,95.85,75.25z M91.47,82.03c-0.11,0.24-0.23,0.46-0.36,0.68c-0.37,0.61-0.83,1.12-1.39,1.54
		c-0.75,0.57-1.59,0.86-2.53,0.86c-0.92,0-1.67-0.3-2.25-0.89c-0.58-0.59-0.87-1.44-0.87-2.54c0-1.01,0.2-1.97,0.61-2.89
		c0.4-0.92,0.97-1.66,1.7-2.23c0.73-0.57,1.57-0.86,2.54-0.86c0.92,0,1.68,0.3,2.28,0.91c0.41,0.41,0.68,0.94,0.82,1.6
		c0.06,0.3,0.09,0.63,0.09,0.99C92.09,80.18,91.89,81.13,91.47,82.03z"/>
	<path class="st1" d="M235.64,81.62c0.24-0.89,0.36-1.84,0.36-2.83c0-0.09,0-0.17,0-0.25v-0.01c-0.04-1.24-0.32-2.34-0.85-3.29
		c-0.56-1.02-1.36-1.82-2.39-2.39c-1.03-0.57-2.2-0.86-3.51-0.86c-1.77,0-3.37,0.43-4.81,1.29c-1.03,0.61-1.9,1.39-2.61,2.33
		c-0.29,0.38-0.55,0.78-0.78,1.22c-0.3,0.55-0.54,1.11-0.73,1.7c0,0.01-0.01,0.01-0.01,0.01c-0.31,0.97-0.48,2-0.49,3.09v0.02
		c0,0.06,0,0.12,0,0.18c0,1.35,0.28,2.54,0.83,3.56c0.55,1.02,1.34,1.81,2.36,2.37c1.02,0.56,2.18,0.84,3.5,0.84
		c1.76,0,3.37-0.42,4.82-1.27c0.84-0.49,1.57-1.09,2.2-1.8l-3.17-2.7c-0.31,0.47-0.67,0.88-1.1,1.23c-0.71,0.59-1.51,0.88-2.39,0.88
		c-0.87,0-1.58-0.3-2.13-0.91c-0.51-0.57-0.79-1.37-0.82-2.39v-0.02H235.64z M224.47,78.52c0.01-0.02,0.01-0.04,0.02-0.05
		c0.06-0.16,0.13-0.3,0.2-0.45c0.36-0.74,0.83-1.36,1.4-1.85c0.69-0.59,1.49-0.88,2.4-0.88c0.87,0,1.58,0.31,2.16,0.93
		c0.39,0.42,0.64,0.97,0.77,1.64c0.04,0.21,0.06,0.43,0.08,0.66v0.01h-7.03C224.47,78.52,224.47,78.52,224.47,78.52z"/>
	<path class="st2" d="M108.02,84.26c-0.75,0.57-1.6,0.86-2.54,0.86c-0.92,0-1.68-0.3-2.26-0.89c-0.58-0.6-0.88-1.45-0.88-2.55
		c0-1.01,0.2-1.98,0.61-2.9c0.41-0.92,0.97-1.67,1.7-2.24c0.73-0.57,1.58-0.86,2.55-0.86c0.92,0,1.68,0.3,2.29,0.91
		c0.41,0.41,0.69,0.95,0.82,1.6l4.12-2.49c-0.07-0.16-0.16-0.32-0.25-0.48c-0.6-1.02-1.45-1.82-2.54-2.39
		c-1.09-0.57-2.34-0.85-3.73-0.85c-1.88,0-3.58,0.43-5.11,1.29c-1.53,0.86-2.73,2.05-3.6,3.56c-0.87,1.51-1.31,3.18-1.31,5.02
		c0,1.35,0.3,2.54,0.88,3.57c0.59,1.03,1.43,1.82,2.51,2.38c1.08,0.56,2.32,0.84,3.71,0.84c1.88,0,3.58-0.42,5.12-1.28
		c0.85-0.47,1.6-1.04,2.25-1.71l-3.13-2.66C108.9,83.48,108.49,83.9,108.02,84.26z"/>
	<polygon class="st2" points="124.67,80.14 129.83,88.6 124.5,88.58 121.14,82.92 119.56,80.2 117.37,88.6 112.95,88.6 
		119.05,65.69 124.38,63.14 119.97,78.75 122.17,76.74 127.37,72.01 132.98,71.98 	"/>
	<path class="st1" d="M199.53,80.2l-0.97,3.83h1.33l-1.16,4.57h-2.09c-1.75,0-3.02-1.65-2.58-3.34l0.32-1.23l4.81-17.99l4.94-2.91
		l-4.21,15.65L199.53,80.2z"/>
	<path class="st2" d="M161.11,72.24l-1.09,4.07l-3.76,0.03l-0.63,2.35l-0.39,1.44l-0.98,3.87h1.34l-1.17,4.61h-2.11
		c-1.76,0-3.05-1.66-2.61-3.37l0.32-1.24l2.05-7.65l0.01-0.03l-3.76,0.03l1.08-4.06l3.76-0.03l1.71-6.41l4.99-2.7l-2.52,9.11
		l-0.01,0.03L161.11,72.24z"/>
	<polygon class="st2" points="154.94,76.11 154.93,76.14 154.48,76.14 154.49,76.11 	"/>
	<polygon class="st2" points="154.94,76.11 154.93,76.14 154.48,76.14 154.49,76.11 	"/>
	<path class="st1" d="M190.52,72l-0.13,0.46l-0.11,0.39c-0.03-0.02-0.06-0.03-0.09-0.05c-1.09-0.57-2.34-0.86-3.74-0.86
		c-1.21,0-2.36,0.18-3.43,0.54c-0.59,0.19-1.15,0.44-1.69,0.75c-1.53,0.86-2.73,2.05-3.6,3.56c-0.87,1.51-1.31,3.19-1.31,5.03
		c0,1.36,0.3,2.55,0.89,3.57c0.59,1.03,1.43,1.82,2.51,2.38c0.01,0.01,0.02,0.01,0.03,0.02c1.84,0.94,4.06,0.72,5.74-0.47
		c0.32-0.23,0.63-0.47,0.89-0.71l-0.54,1.98h4.09l4.43-16.14l0.13-0.46H190.52z M188.61,78.91l-1.07,3.89
		c-0.16,0.58-0.49,1.09-0.96,1.46c0,0-0.01,0-0.01,0.01c-0.75,0.58-1.6,0.86-2.55,0.86c-0.6,0-1.13-0.13-1.59-0.38
		c-0.24-0.13-0.47-0.31-0.67-0.51c-0.58-0.6-0.88-1.45-0.88-2.55c0-1.01,0.2-1.98,0.61-2.9c0.41-0.92,0.98-1.67,1.71-2.25
		c0.73-0.58,1.58-0.86,2.55-0.86c0.92,0,1.69,0.3,2.3,0.91l0.01,0.01C188.65,77.19,188.84,78.09,188.61,78.91z"/>
	<path class="st1" d="M186.52,59.07c0,0-1.7,5.45-1.7,5.45c-0.01,0.04-0.32,0.14-0.35,0.16c-0.38,0.19-0.73,0.44-1.06,0.69
		c-0.89,0.68-1.67,1.51-2.41,2.35c-1.52,1.74-2.82,3.66-3.98,5.65c-1.38,2.34-2.57,4.77-3.78,7.2c-1.1,2.22-2.21,4.44-3.31,6.66
		c-0.23,0.46-0.45,0.91-0.68,1.37h-2.08l-1.54-25.49h4.27c0,0,0.84,13.94,0.84,13.94c1.54-3.07,3.05-6.13,5.06-8.94
		c2.32-3.25,5.17-6.44,8.78-8.29C185.19,59.52,185.84,59.22,186.52,59.07z"/>
	<path class="st1" d="M219.23,71.98l-1.93,8.1l-0.4,1.69l-1.54,6.83h-4.44l0.44-1.89c-0.2,0.2-0.43,0.39-0.66,0.59
		c-2.34,1.97-5.66,1.35-7.55-0.93c-1.37-1.64-1.1-3.28-0.66-5.19c0.16-0.69,0.32-1.38,0.48-2.07c0.35-1.5,0.69-2.99,1.04-4.49
		c0.16-0.7,0.32-1.41,0.49-2.11c0,0,0.12-0.54,0.12-0.54h4.48l-0.61,2.55l-1.32,5.55l-0.4,1.69l-0.18,0.82
		c-0.09,0.38,0.01,0.78,0.26,1.08c0.21,0.24,0.43,0.44,0.68,0.59c0.46,0.3,1,0.45,1.61,0.45c0.95,0,1.81-0.33,2.57-1
		c0,0,0.01,0,0.01-0.01c0.3-0.26,0.51-0.62,0.6-1.01c0,0,1.5-6.52,1.5-6.53l0.96-4.19H219.23z"/>
	<path class="st1" d="M203.54,76.52l-1.15,4.33"/>
	<path class="st2" d="M146.76,81.62c0.24-0.9,0.36-1.84,0.36-2.83c0-0.09,0-0.17,0-0.25v-0.01c-0.04-1.24-0.32-2.34-0.85-3.3
		c-0.57-1.02-1.36-1.82-2.39-2.39c-1.03-0.57-2.2-0.85-3.51-0.85c-1.77,0-3.37,0.43-4.81,1.29c-1.02,0.61-1.9,1.39-2.61,2.33
		c-0.29,0.38-0.55,0.78-0.78,1.22c-0.3,0.55-0.54,1.11-0.72,1.7c0,0.01-0.01,0.01-0.01,0.01c-0.31,0.97-0.48,2-0.49,3.09v0.02
		c0,0.05,0,0.09,0,0.14v0.04c0,1.35,0.28,2.54,0.83,3.56c0.55,1.02,1.34,1.81,2.36,2.37c1.02,0.56,2.18,0.84,3.49,0.84
		c1.77,0,3.37-0.42,4.82-1.27c0.83-0.49,1.57-1.09,2.2-1.8l-3.18-2.7c-0.31,0.47-0.67,0.88-1.1,1.23c-0.71,0.59-1.51,0.88-2.39,0.88
		c-0.87,0-1.58-0.3-2.13-0.91c-0.51-0.57-0.79-1.37-0.82-2.39v-0.02H146.76z M135.59,78.52c0.01-0.02,0.01-0.04,0.02-0.06
		c0.06-0.15,0.13-0.3,0.2-0.44c0.36-0.74,0.83-1.36,1.4-1.85c0.69-0.59,1.49-0.88,2.4-0.88c0.87,0,1.58,0.31,2.15,0.93
		c0.39,0.42,0.65,0.97,0.77,1.64c0.04,0.21,0.06,0.43,0.08,0.66v0.01h-7.03C135.59,78.53,135.59,78.52,135.59,78.52z"/>
	<path class="st2" d="M81.82,67.98c-0.44-2.03-1.8-3.84-3.75-4.62c-0.77-0.31-1.58-0.44-2.4-0.48c-0.23-0.01-0.47-0.02-0.71-0.02
		l-7.74-0.02c-0.01,0-0.01,0.01-0.01,0.02c0,0,0,0.01,0.01,0.01c0.26,0.2,0.37,0.53,0.29,0.84c0,0,0,0.01,0,0.01l-6.74,24.86h4.08
		l2.25-8.56l4.94-0.25c0.73-0.09,1.45-0.22,2.16-0.44C78.82,77.93,82.92,73.03,81.82,67.98z M73.79,74.95
		c-0.36,0.1-0.73,0.17-1.1,0.21l-4.34,0.21l2.45-8.88l3.37-0.01c0.12-0.01,0.24,0,0.36,0c0.41,0.02,0.82,0.09,1.21,0.23
		c0.98,0.37,1.67,1.25,1.89,2.22C78.2,71.36,76.13,74.27,73.79,74.95z"/>
	<path class="st1" d="M33.65,68.58c-0.07,0.13-0.14,0.26-0.22,0.39l-0.1-0.39H33.65z"/>
	<polygon class="st1" points="65.07,62.51 64.14,65.59 29.35,65.59 28.63,62.91 28.52,62.51 27.74,59.61 21.46,59.61 20.63,56.54 
		30.1,56.54 30.92,59.61 31.7,62.51 	"/>
	<polygon class="st1" points="58.61,85.17 57.79,88.24 35.44,88.24 34.61,85.17 	"/>
	<path class="st2" d="M47.55,65.59H35.03c0.42-1.01,0.81-2.04,1.18-3.07c0,0,0-0.01,0-0.01h12.42c0,0,0,0.01,0,0.01
		C48.25,63.54,47.86,64.56,47.55,65.59z"/>
	<path class="st1" d="M63.07,68.58l-0.83,3.07l-0.6,2.22l-0.83,3.07h-7.54l-0.83-3.07h6.01l0.6-2.22H34.16l1.51,5.62l0.5,1.86h24.06
		l-0.83,3.07H33.81l-0.83-3.07l-0.48-1.78l-1.49-5.53l-0.05-0.17l-0.83-3.07h3.18l0.1,0.39c0.07-0.13,0.15-0.26,0.22-0.39H63.07z"/>
	<path class="st2" d="M52.79,76.96c0,0-8.04,0.11-17.32,0.34h0c-1.05,0.03-2.12,0.05-3.2,0.08c-7.63,0.2-15.57,0.48-20.27,0.83
		c0.3-0.03,2.53-0.24,5.7-1c0.85-0.2,1.76-0.45,2.72-0.73c2.83-0.85,6.07-2.09,9.24-3.91c0.39-0.22,0.76-0.47,1.11-0.75
		c0.07-0.06,0.14-0.11,0.21-0.17h17.52c0.82,1.11,1.98,1.99,3.38,2.45c0,0,0,0,0,0c0.06,0.02,0.11,0.07,0.13,0.14
		c0.07,0.28,0.29,1.09,0.49,1.81c0.03,0.1,0.06,0.2,0.08,0.29C52.67,76.57,52.73,76.79,52.79,76.96z"/>
	<path class="st2" d="M91.58,15.2c-0.85-5.08-4.06-9.78-8.88-11.95c-1.91-0.86-3.94-1.3-6.01-1.5c-0.6-0.06-1.2-0.1-1.8-0.12H55.28
		c-0.05,0-0.07,0.06-0.03,0.09c0.7,0.59,0.97,1.54,0.69,2.4c0,0.01,0,0.01,0,0.02c-0.01,0.02-0.01,0.04-0.02,0.06
		c-0.1,0.31-0.21,0.61-0.31,0.92c-0.22,0.64-0.44,1.28-0.65,1.92c-1.16,3.41-2.31,6.81-3.47,10.22c-1.75,5.15-3.5,10.3-5.25,15.45
		c-1.21,3.57-2.43,7.13-3.65,10.69c-0.67,1.97-1.34,3.93-2.02,5.9c-1.16,3.38-2.2,6.89-3.35,10.34h12.45
		c0.35-0.97,0.7-1.94,1.04-2.91l17.8-49.95L60.3,36.54c20.31-20.57,22.31-2.22,22.31-2.22c-3.68-14.49-14.89-2.53-23.09,9.03
		c4.92-0.11,9.26-0.36,11.29-0.86C82.72,39.6,93.71,27.9,91.58,15.2z M72.14,26.27c-2.54,0.7-5.3,0.55-7.9,0.61l5.78-20.16
		c2.35-0.15,5.02-0.17,7.2,0.76c2.28,0.97,3.84,3.17,4.3,5.57C82.68,19.06,77.68,24.75,72.14,26.27z"/>
	<path class="st1" d="M82.61,34.32c-3.68-14.49-14.89-2.53-23.09,9.03c-5.23,7.38-9.24,14.6-9.27,14.66l0.47-1.31l17.8-49.95
		L60.3,36.54C80.6,15.97,82.61,34.32,82.61,34.32z"/>
	<path class="st2" d="M56,90.7c-1.93-1.27-4.52-0.74-5.79,1.19c-1.27,1.93-0.74,4.52,1.19,5.8c1.93,1.27,4.52,0.74,5.8-1.19
		C58.46,94.57,57.92,91.97,56,90.7z M55.34,95.28c-0.6,0.91-1.83,1.16-2.74,0.56c-0.91-0.6-1.16-1.83-0.56-2.74
		c0.6-0.91,1.83-1.16,2.74-0.56C55.69,93.14,55.94,94.37,55.34,95.28z"/>
	<path class="st2" d="M41.96,90.7c-1.93-1.27-4.52-0.74-5.79,1.19c-1.27,1.93-0.74,4.52,1.19,5.8c1.93,1.27,4.52,0.74,5.8-1.19
		C44.43,94.57,43.89,91.97,41.96,90.7z M41.31,95.28c-0.6,0.91-1.83,1.16-2.74,0.56c-0.91-0.6-1.16-1.83-0.56-2.74
		c0.6-0.91,1.83-1.16,2.74-0.56C41.66,93.14,41.91,94.37,41.31,95.28z"/>
</g>
</svg>
