<svg xmlns="http://www.w3.org/2000/svg" viewBox="0 0 236.47 46.71"><defs><style>.cls-1{fill:#0c9488;}.cls-2{fill:#e7b00d;}.cls-3{fill:#fc0;}</style></defs><g id="Layer_2" data-name="Layer 2"><g id="Layer_1-2" data-name="Layer 1"><line x1="159.13" y1="39.99" x2="159.13" y2="39.99"/><line class="cls-1" x1="129.58" y1="18.72" x2="129.43" y2="18.72"/><path class="cls-1" d="M80.59,20.51a6.91,6.91,0,0,0-2.81-2.65,8.82,8.82,0,0,0-4.13-.94A11.26,11.26,0,0,0,68,18.35a10.46,10.46,0,0,0-4,3.93,11,11,0,0,0-1.44,5.57,7.82,7.82,0,0,0,1,3.95,6.68,6.68,0,0,0,2.78,2.64,8.82,8.82,0,0,0,4.11.93A11.48,11.48,0,0,0,76.11,34a10.37,10.37,0,0,0,4-3.9,10.77,10.77,0,0,0,1.47-5.58A7.67,7.67,0,0,0,80.59,20.51Zm-4.87,7.55a6.61,6.61,0,0,1-.4.75,6.2,6.2,0,0,1-1.54,1.72,4.59,4.59,0,0,1-2.82.95,3.36,3.36,0,0,1-2.51-1,3.89,3.89,0,0,1-1-2.82,7.87,7.87,0,0,1,.68-3.21A6.29,6.29,0,0,1,70,22,4.47,4.47,0,0,1,72.86,21a3.45,3.45,0,0,1,2.54,1,3.41,3.41,0,0,1,.91,1.78,5.35,5.35,0,0,1,.1,1.1A7.52,7.52,0,0,1,75.72,28.06Z"/><path class="cls-2" d="M236.07,27.6a12,12,0,0,0,.4-3.15v-.3a8,8,0,0,0-.94-3.66,6.68,6.68,0,0,0-2.66-2.66,7.85,7.85,0,0,0-3.9-.95,10.18,10.18,0,0,0-8.25,4A11.19,11.19,0,0,0,219,24.15v0a11.62,11.62,0,0,0-.55,3.43v.23a8.16,8.16,0,0,0,.92,4A6.49,6.49,0,0,0,222,34.43a7.86,7.86,0,0,0,3.89.94A10.36,10.36,0,0,0,231.29,34a9.67,9.67,0,0,0,2.44-2l-3.53-3A5.93,5.93,0,0,1,229,30.32a4.07,4.07,0,0,1-2.66,1,3,3,0,0,1-2.37-1,4,4,0,0,1-.91-2.65v0Zm-12.42-3.45s0,0,0-.06.14-.33.22-.49a6.24,6.24,0,0,1,1.56-2.06,4,4,0,0,1,2.67-1,3.14,3.14,0,0,1,2.4,1,3.63,3.63,0,0,1,.85,1.82,5.6,5.6,0,0,1,.09.73v0h-7.82Z"/><path class="cls-1" d="M94.12,30.54a4.55,4.55,0,0,1-2.83,1,3.36,3.36,0,0,1-2.51-1,3.9,3.9,0,0,1-1-2.84,7.92,7.92,0,0,1,.68-3.22A6.26,6.26,0,0,1,90.37,22a4.45,4.45,0,0,1,2.83-1,3.36,3.36,0,0,1,3.46,2.8L101.24,21a3.84,3.84,0,0,0-.28-.53,6.77,6.77,0,0,0-2.82-2.66A8.78,8.78,0,0,0,94,16.88a11.44,11.44,0,0,0-5.68,1.43,10.49,10.49,0,0,0-4,4,11,11,0,0,0-1.46,5.58,7.77,7.77,0,0,0,1,4,6.79,6.79,0,0,0,2.79,2.65,8.91,8.91,0,0,0,4.13.93A11.53,11.53,0,0,0,96.46,34a10.26,10.26,0,0,0,2.5-1.9l-3.49-3A5.88,5.88,0,0,1,94.12,30.54Z"/><polygon class="cls-1" points="112.64 25.96 118.39 35.37 112.45 35.35 108.71 29.05 106.96 26.02 104.52 35.37 99.6 35.37 106.39 9.88 112.32 7.04 107.41 24.41 109.86 22.18 115.65 16.92 121.88 16.88 112.64 25.96"/><path class="cls-2" d="M195.91,26l-1.09,4.26h1.48L195,35.37h-2.33a3,3,0,0,1-2.87-3.72l.35-1.36,5.35-20L201,7l-4.68,17.41Z"/><path class="cls-1" d="M153.18,17.18,152,21.7l-4.18,0-.7,2.62-.43,1.59-1.09,4.3h1.49l-1.3,5.13H143.4a3,3,0,0,1-2.9-3.75l.35-1.38,2.28-8.51v0l-4.18,0,1.21-4.51,4.18,0,1.91-7.13,5.54-3L149,17.18l0,0Z"/><polygon class="cls-1" points="146.31 21.48 146.3 21.51 145.8 21.51 145.81 21.48 146.31 21.48"/><polygon class="cls-1" points="146.31 21.48 146.3 21.51 145.8 21.51 145.81 21.48 146.31 21.48"/><path class="cls-2" d="M185.88,16.91l-.14.51-.12.43-.1-.05a8.76,8.76,0,0,0-4.15-.95,11.88,11.88,0,0,0-3.81.6,9.86,9.86,0,0,0-1.88.83,10.41,10.41,0,0,0-4,4,11,11,0,0,0-1.46,5.59,7.77,7.77,0,0,0,1,4A6.75,6.75,0,0,0,174,34.47l0,0a6.2,6.2,0,0,0,6.38-.53,8.17,8.17,0,0,0,1-.79l-.61,2.21h4.55l4.93-18,.14-.51Zm-2.11,7.68-1.19,4.32a3.1,3.1,0,0,1-1.07,1.62h0a4.63,4.63,0,0,1-2.84.95,3.62,3.62,0,0,1-1.77-.42,3.38,3.38,0,0,1-.75-.57,3.9,3.9,0,0,1-1-2.84,8,8,0,0,1,.67-3.23,6.38,6.38,0,0,1,1.9-2.5,4.45,4.45,0,0,1,2.84-.95,3.45,3.45,0,0,1,2.55,1h0A2.66,2.66,0,0,1,183.77,24.59Z"/><path class="cls-2" d="M181.44,2.52l-1.89,6.07a2,2,0,0,1-.39.17,7,7,0,0,0-1.18.77,19,19,0,0,0-2.69,2.62,41.1,41.1,0,0,0-4.43,6.28c-1.53,2.61-2.85,5.31-4.2,8L163,33.85l-.76,1.52H159.9L158.19,7h4.75l.94,15.51a73.58,73.58,0,0,1,5.62-9.94c2.59-3.62,5.75-7.17,9.77-9.22A9.41,9.41,0,0,1,181.44,2.52Z"/><path class="cls-2" d="M217.82,16.88l-2.15,9-.45,1.88-1.71,7.6h-4.94l.49-2.11c-.23.22-.48.44-.74.66a5.91,5.91,0,0,1-8.4-1c-1.52-1.82-1.23-3.64-.74-5.76l.53-2.3,1.16-5,.54-2.35.13-.59h5l-.68,2.84-1.47,6.17-.45,1.88-.2.9a1.42,1.42,0,0,0,.28,1.21,3.34,3.34,0,0,0,.76.66,3.23,3.23,0,0,0,1.79.5,4.18,4.18,0,0,0,2.85-1.12s0,0,0,0a2.07,2.07,0,0,0,.67-1.11l1.67-7.26,1.08-4.66Z"/><path class="cls-2" d="M200.37,21.93l-1.29,4.82"/><path class="cls-1" d="M137.21,27.6a12,12,0,0,0,.4-3.15v-.3a7.88,7.88,0,0,0-.94-3.66A6.61,6.61,0,0,0,134,17.83a7.93,7.93,0,0,0-3.9-.95,10.13,10.13,0,0,0-8.24,4,11.29,11.29,0,0,0-.88,1.36,9.84,9.84,0,0,0-.8,1.89s0,0,0,0a11.62,11.62,0,0,0-.55,3.43v.23a8.16,8.16,0,0,0,.93,4,6.41,6.41,0,0,0,2.62,2.64,7.89,7.89,0,0,0,3.89.94A10.33,10.33,0,0,0,132.43,34a9.9,9.9,0,0,0,2.45-2l-3.54-3a5.86,5.86,0,0,1-1.22,1.36,4.05,4.05,0,0,1-2.66,1,3,3,0,0,1-2.36-1,4,4,0,0,1-.92-2.66v0Zm-12.42-3.45s0,0,0-.06a4.37,4.37,0,0,1,.23-.49,6.11,6.11,0,0,1,1.56-2.06,4,4,0,0,1,2.66-1,3.13,3.13,0,0,1,2.4,1,3.6,3.6,0,0,1,.86,1.82,5.43,5.43,0,0,1,.08.73v0h-7.81Z"/><path class="cls-3" d="M14.54,13.44l-.24.43-.12-.43Z"/><polygon class="cls-2" points="49.62 6.67 48.59 10.11 9.73 10.11 8.93 7.12 8.81 6.67 7.94 3.43 0.92 3.43 0 0 10.57 0 11.49 3.43 12.36 6.67 49.62 6.67"/><polygon class="cls-1" points="42.41 31.97 41.49 35.4 16.53 35.4 15.61 31.97 42.41 31.97"/><path class="cls-2" d="M47.39,13.44l-.92,3.43-.67,2.48-.92,3.43H36.47l-.93-3.43h6.71l.67-2.48H15.11l1.68,6.28.56,2.08H44.22l-.92,3.43H14.72l-.92-3.43-.53-2L11.6,17.07l0-.2-.92-3.43h3.55l.12.43.24-.43Z"/><path class="cls-1" d="M39.49,38.14a4.67,4.67,0,1,0,1.33,6.48A4.67,4.67,0,0,0,39.49,38.14Zm-.73,5.12a2.2,2.2,0,1,1-.62-3.06A2.21,2.21,0,0,1,38.76,43.26Z"/><path class="cls-1" d="M23.82,38.14a4.67,4.67,0,1,0,1.33,6.48A4.67,4.67,0,0,0,23.82,38.14Zm-.72,5.12a2.21,2.21,0,1,1-.63-3.06A2.22,2.22,0,0,1,23.1,43.26Z"/><path class="cls-1" d="M65,12.43a7.11,7.11,0,0,0-4.17-5.14,8.47,8.47,0,0,0-2.68-.54h-.79l-8.61,0s0,0,0,0h0a.89.89,0,0,1,.32.94h0l-7.5,27.66h4.53l2.51-9.52,5.49-.28a14.17,14.17,0,0,0,2.4-.48C61.65,23.5,66.21,18.05,65,12.43Zm-8.94,7.75a8.46,8.46,0,0,1-1.22.23L50,20.64l2.73-9.87h4.16a4.37,4.37,0,0,1,1.34.26,3.46,3.46,0,0,1,2.11,2.47C61,16.19,58.65,19.43,56.05,20.18Z"/></g></g></svg>