<?xml version="1.0" encoding="utf-8"?>
<!-- Generator: Adobe Illustrator 24.3.0, SVG Export Plug-In . SVG Version: 6.00 Build 0)  -->
<svg version="1.0" id="Layer_1" xmlns="http://www.w3.org/2000/svg" xmlns:xlink="http://www.w3.org/1999/xlink" x="0px" y="0px"
	 viewBox="0 0 500 500" enable-background="new 0 0 500 500" xml:space="preserve">
<g>
	<path fill="#10589E" d="M336.8,56.4c-14.4-25.8-44.6-35.9-61.3-39.6c-5.9-1.3-11.9-2.2-17.8-2.7c-58.5-4.9-113,11.2-157.2,46
		c-54.9,43.9-90,111.5-90,187.2c0,76.6,37.6,146,93.4,189.9l0.1,0.1c0,0,0,0,0-0.1c-2.6-2.8-57.1-64-57.6-144.1
		c-0.1-13.8,1.4-28.1,5.1-42.8c0.4-1.8,0.9-3.7,1.5-5.5c0-0.2,0.1-0.3,0.1-0.5c0-0.1,0-0.2,0.1-0.3c0-0.1,0-0.1,0-0.2
		c0-0.1,0.1-0.2,0.1-0.3c0.1-0.4,0.3-0.9,0.4-1.3c0.2-0.6,0.3-1.1,0.5-1.7c0.5-1.7,1.1-3.5,1.7-5.2c0.2-0.5,0.3-1,0.5-1.5
		c0.2-0.6,0.4-1.1,0.6-1.7c0.2-0.6,0.4-1.1,0.6-1.7c0.2-0.6,0.4-1.1,0.7-1.7c0.2-0.6,0.4-1.1,0.7-1.7c0.2-0.6,0.5-1.2,0.7-1.8
		c0.2-0.5,0.5-1.1,0.7-1.6c0.2-0.6,0.5-1.1,0.7-1.7c0.2-0.6,0.5-1.1,0.8-1.7c0.8-1.8,1.7-3.6,2.6-5.5c0.2-0.4,0.4-0.9,0.7-1.3
		c0.3-0.6,0.6-1.1,0.9-1.7c0.3-0.7,0.7-1.3,1-1.9c0.3-0.5,0.5-1,0.8-1.5c0.3-0.6,0.6-1.1,0.9-1.7c2.2-4,4.5-8,7.1-12
		c0.3-0.5,0.7-1.1,1.1-1.6c0.2-0.3,0.4-0.6,0.6-0.9c0.4-0.5,0.7-1.1,1.1-1.6c2.5-3.8,5.2-7.5,8.1-11.3c0.4-0.6,0.9-1.1,1.3-1.7
		c3.1-4,6.5-8,10-12.1c0.5-0.6,1-1.1,1.5-1.7c1-1.1,2.1-2.3,3.2-3.4c0.5-0.5,1-1,1.4-1.6c7.6-8.1,16.2-16.2,25.7-24.2c0,0,0,0,0,0
		L99.1,335.6l62.7-37.3l0.3-0.2l10-64.2c24.1-11.3,47.3-23.8,64.8-33.5c19.9-11,39.2-22.1,56.5-35.6c12-9.4,21.7-18.9,29.7-29.1
		C339.6,114.9,351.8,83.1,336.8,56.4z M275.6,129.4c-6.6,11.4-15.5,21.4-26.5,29.8c-13.9,10.6-37.5,26-71.9,39.7l16.9-106
		c4.1-1.5,39-13.7,66.8-9.5h0c0.2,0,15,1.8,20.6,12.8C285.6,104.4,283.6,115.6,275.6,129.4z"/>
	<g>
		<line fill="none" x1="392.8" y1="183.2" x2="392.9" y2="182.2"/>
	</g>
	<g>
		<path d="M404.9,175.7L404.9,175.7C404.9,175.7,404.9,175.7,404.9,175.7C404.9,175.7,404.9,175.7,404.9,175.7z"/>
	</g>
	<linearGradient id="SVGID_1_" gradientUnits="userSpaceOnUse" x1="337.0522" y1="482.6729" x2="403.907" y2="417.8751">
		<stop  offset="6.475407e-02" style="stop-color:#FF8F32"/>
		<stop  offset="0.2643" style="stop-color:#FF8F32"/>
		<stop  offset="0.4236" style="stop-color:#F8832F"/>
		<stop  offset="0.8548" style="stop-color:#E86627"/>
	</linearGradient>
	<circle fill="url(#SVGID_1_)" cx="372" cy="448.8" r="18.8"/>
	<linearGradient id="SVGID_2_" gradientUnits="userSpaceOnUse" x1="413.2695" y1="426.585" x2="466.2105" y2="367.2751">
		<stop  offset="6.475407e-02" style="stop-color:#FF8F32"/>
		<stop  offset="0.2643" style="stop-color:#FF8F32"/>
		<stop  offset="0.4415" style="stop-color:#F8832F"/>
		<stop  offset="0.9213" style="stop-color:#E86627"/>
	</linearGradient>
	<circle fill="url(#SVGID_2_)" cx="445.5" cy="390.5" r="18.8"/>
	<linearGradient id="SVGID_3_" gradientUnits="userSpaceOnUse" x1="179.332" y1="471.1975" x2="469.0076" y2="240.9964">
		<stop  offset="6.475407e-02" style="stop-color:#FF8F32"/>
		<stop  offset="0.3825" style="stop-color:#FF8F32"/>
		<stop  offset="0.5935" style="stop-color:#F7812E"/>
		<stop  offset="0.8818" style="stop-color:#E86627"/>
	</linearGradient>
	<polygon fill="url(#SVGID_3_)" points="370.2,250.4 372.5,257.9 376.5,271.1 378.8,278.7 254.6,378.7 270.3,382.5 382.8,291.9 
		385.1,299.5 389.1,312.6 391.5,320.3 304,390.6 319.7,394.4 395.4,333.4 397.8,341 401.7,353.8 404,361.7 403.7,362 398.6,365.7 
		349.8,401.5 341.9,407.3 339.5,409 341.5,407.2 348.4,401.1 395.6,359.4 391.6,346 321.5,402.4 312.4,400.2 296.8,396.5 
		287.7,394.3 383,317.6 379,304.5 272.1,390.5 263,388.4 247.3,384.6 238.3,382.4 370.3,276.1 366.3,262.7 225.1,371.7 364.1,255.5 
			"/>
	<path fill="#F68F34" d="M53.6,242.1c-0.1,0.4-0.3,0.9-0.4,1.3c0.1-0.4,0.2-0.7,0.3-1.1C53.6,242.2,53.6,242.1,53.6,242.1z"/>
	<path fill="#10589E" d="M489.6,247.2c0,44.5-12.1,86.1-33.2,121.8c-9.5-4.9-21.4-3-28.8,5.3c-8.6,9.5-8.2,24,0.7,33.1
		c-10.4,11.6-21.9,22.1-34.3,31.5c-1.3-2.9-3.2-5.6-5.8-7.9c-9.9-9-25.1-8.2-34.1,1.7c-8,8.8-8.2,22-1.1,31.1
		c-4.4,2.1-8.8,4-13.3,5.9l-0.1,0c-27.7,11.2-57.9,17.3-89.6,17.3c-55,0-105.6-18.5-146.1-49.7c0,0,0,0,0.1-0.1
		c2.4-2.5,4.9-5.2,7.6-7.8c0.2-0.2,0.4-0.4,0.5-0.6c0.2-0.2,0.4-0.3,0.5-0.5c1.2-1.1,2.3-2.3,3.5-3.5c0.6-0.6,1.2-1.2,1.8-1.8
		c0.5-0.5,0.9-0.9,1.4-1.4c0.5-0.5,1-1,1.5-1.4c0.3-0.3,0.5-0.5,0.8-0.8c1.1-1.1,2.3-2.2,3.5-3.3c1.4-1.3,2.8-2.6,4.3-4
		c1.3-1.2,2.7-2.4,4-3.7c3.4-3.1,6.9-6.2,10.5-9.3l0.1,0c11.7,9.4,24.5,17.4,37.9,24c38.2,18.7,79.9,24.1,119.3,17.5l0,0l21.4-6.1
		c0,0,31.7-11.4,35.7-12.6h0.1c0.1,0,0.1,0,0.2-0.1c21.5-10.9,41.1-25.9,57.5-44.6c0,0,0.1-0.1,0.1-0.1l0-0.1
		c1.3-2.1,2.5-5.1,2.8-8.6l12.5-14.2l10-13.5l0.1,0c0,0,0-0.1,0-0.1c0.6-1.1,1.2-2.2,1.7-3.3c25.5-49.4,30.3-108.9,15.1-162.4
		c-17.5-61.7-65.3-119-122.2-150c-1.2-0.7-2.4-1.3-3.6-1.9l-0.5-0.3c0,0-0.1,0-0.1-0.1c1.5,0.6,2.9,1.2,4.4,1.8
		C423.8,60.3,489.6,147.3,489.6,247.2z"/>
	<path fill="#0B599E" d="M144.2,399.2L144.2,399.2C144.1,399.2,144.2,399.2,144.2,399.2C144.2,399.2,144.2,399.2,144.2,399.2z"/>
	<path fill="#0B599E" d="M441.7,340.7c-0.2,0.4-0.4,0.7-0.6,1.1c-0.3,0.5-0.6,1-0.9,1.6c-0.4,0.7-0.8,1.4-1.1,2
		c-0.7,1.2-1.4,2.4-2.1,3.6c-0.7,1.2-1.4,2.4-2.2,3.5c-0.7,1.1-1.4,2.3-2.2,3.4c-0.1,0.1-0.1,0.2-0.2,0.3c-0.7,1-1.4,2-2.1,3
		c-0.1,0.1-0.1,0.2-0.2,0.3c-0.8,1.1-1.5,2.2-2.3,3.3c-2.4,3.3-4.9,6.6-7.5,9.7c-1.3,1.5-2.6,3.1-3.9,4.6c0,0,0,0,0,0
		c0,0-0.1,0.1-0.1,0.1c0-0.1,0.1-0.2,0.1-0.2c1.3-2.1,2.5-5.1,2.8-8.6c0.2-2.3,0-4.8-0.9-7.6c-3.1-10.2-34.2-113.8-45.9-152.6
		c8.7-11.2,14.9-22.3,19.3-32.8L441.7,340.7L441.7,340.7z"/>
	<path fill="#0B599E" d="M358.8,421.8c-0.1,0-0.1,0.1-0.2,0.1c-0.2,0.1-0.5,0.2-0.7,0.4l-0.2,0.1c-2.2,1.1-4.5,2.2-6.7,3.2
		c-2.6,1.2-5.2,2.3-7.8,3.4c-0.9,0.4-1.7,0.7-2.6,1c-0.8,0.3-1.6,0.6-2.4,0.9c-1,0.4-1.9,0.7-2.9,1.1c-1.8,0.6-3.6,1.2-5.4,1.8
		c-0.9,0.3-1.8,0.6-2.7,0.9c-0.9,0.3-1.8,0.5-2.7,0.8c-1,0.3-2,0.6-2.9,0.8c-0.9,0.2-1.7,0.5-2.6,0.7c-0.6,0.2-1.3,0.3-1.9,0.5
		c-0.8,0.2-1.5,0.4-2.3,0.6c-0.8,0.2-1.5,0.4-2.3,0.5c-0.8,0.2-1.5,0.3-2.3,0.5c-0.8,0.2-1.5,0.3-2.3,0.5c-1.7,0.4-3.5,0.7-5.2,1
		c-0.3,0.1-0.7,0.1-1,0.2l-0.1,0l-157.3-41.4l-0.1,0c0,0,0,0,0,0c8.5-7.4,17.3-14.9,26.3-22.3l169.1,44.7c0.2,0,0.3,0.1,0.4,0.1
		c8.3,2.1,14.6,1.3,18.6,0.1C358.6,421.8,358.7,421.8,358.8,421.8z"/>
	<linearGradient id="SVGID_4_" gradientUnits="userSpaceOnUse" x1="46.262" y1="229.8801" x2="400.8042" y2="229.8801">
		<stop  offset="6.475407e-02" style="stop-color:#FF8F32"/>
		<stop  offset="0.3825" style="stop-color:#FF8F32"/>
		<stop  offset="0.5935" style="stop-color:#F7812E"/>
		<stop  offset="0.8818" style="stop-color:#E86627"/>
	</linearGradient>
	<path fill="url(#SVGID_4_)" d="M391.7,175.3c-4.3,10.5-10.6,21.6-19.3,32.8c-2.8,3.6-5.9,7.3-9.3,11c0,0-28.7,33.4-83.6,73.4
		c0,0-56.3,40.7-109.1,84.3c-9,7.4-17.8,14.9-26.3,22.3c0,0,0,0,0,0c-3.6,3.1-7.1,6.2-10.5,9.3c-1.4,1.2-2.7,2.5-4.1,3.7
		c-1.4,1.3-2.9,2.6-4.3,3.9c-1.2,1.1-2.3,2.2-3.5,3.3c-0.3,0.2-0.5,0.5-0.8,0.8c-0.5,0.5-1,1-1.5,1.4c-0.5,0.4-1,0.9-1.4,1.4
		c-0.6,0.6-1.2,1.2-1.8,1.8c-1.2,1.2-2.4,2.3-3.5,3.5c-0.2,0.2-0.3,0.3-0.5,0.5c-0.2,0.2-0.4,0.4-0.5,0.6c-2.7,2.7-5.2,5.3-7.6,7.8
		c0,0,0,0-0.1,0.1c0,0,0,0,0,0s0,0,0,0c0,0,0,0,0-0.1c-2.6-2.8-57.1-64-57.6-144.1c-0.1-13.8,1.4-28.1,5.1-42.8
		c0.4-1.8,0.9-3.7,1.5-5.5c0-0.2,0.1-0.3,0.1-0.5c0-0.1,0-0.2,0.1-0.3c0-0.1,0-0.1,0-0.2c0-0.1,0.1-0.2,0.1-0.3
		c0.1-0.4,0.3-0.9,0.4-1.3c0.2-0.6,0.3-1.1,0.5-1.7c0.5-1.7,1.1-3.5,1.7-5.2c0.2-0.5,0.3-1,0.5-1.5c0.2-0.6,0.4-1.1,0.6-1.7
		c0.2-0.6,0.4-1.1,0.6-1.7c0.2-0.6,0.4-1.1,0.7-1.7c0.2-0.6,0.4-1.1,0.7-1.7c0.2-0.6,0.5-1.2,0.7-1.8c0.2-0.5,0.5-1.1,0.7-1.6
		c0.2-0.6,0.5-1.1,0.7-1.7c0.2-0.6,0.5-1.1,0.8-1.7c0.8-1.8,1.7-3.6,2.6-5.5c0.2-0.4,0.4-0.9,0.7-1.3c0.3-0.6,0.6-1.1,0.9-1.7
		c0.3-0.7,0.7-1.3,1-1.9c0.3-0.5,0.5-1,0.8-1.5c0.3-0.6,0.6-1.1,0.9-1.7c2.2-4,4.5-8,7.1-12c0.3-0.5,0.7-1.1,1.1-1.6
		c0.2-0.3,0.4-0.6,0.6-0.9c0.4-0.5,0.7-1.1,1.1-1.6c2.5-3.8,5.2-7.5,8.1-11.3c0.4-0.6,0.9-1.1,1.3-1.7c3.1-4,6.5-8,10-12.1
		c0.5-0.6,1-1.1,1.5-1.7c1-1.1,2.1-2.3,3.2-3.4c0.5-0.5,1-1,1.4-1.6c7.6-8.1,16.2-16.2,25.7-24.2c-0.1,0.1-0.2,0.2-0.4,0.4
		c-7.3,7.6-98.2,106.2-22.7,224.5c0,0,73.5-45.6,104.3-62.3c0,0,106.2-57.4,142.7-100c0,0,90-88.1-21.5-174.5c0,0,0,0,0,0
		c0,0,0,0,0.1,0c2.7,1.5,45.7,26.4,62,71.1C394.3,93.7,410.5,129.7,391.7,175.3z"/>
</g>
</svg>
