<svg xmlns="http://www.w3.org/2000/svg" viewBox="0 0 224 96.75"><defs><style>.cls-1{fill:#0c9488;}.cls-2{fill:#e7b00d;}.cls-3{fill:#007eff;}</style></defs><g id="Layer_2" data-name="Layer 2"><g id="Layer_1-2" data-name="Layer 1"><line class="cls-1" x1="127.9" y1="72" x2="127.77" y2="72"/><path class="cls-1" d="M83.85,73.62a6.16,6.16,0,0,0-2.52-2.38,7.91,7.91,0,0,0-3.72-.85,10.18,10.18,0,0,0-5.09,1.28,9.43,9.43,0,0,0-3.58,3.54,9.79,9.79,0,0,0-1.3,5,7.09,7.09,0,0,0,.88,3.56A6,6,0,0,0,71,86.14a8,8,0,0,0,3.7.83,10.32,10.32,0,0,0,5.1-1.27,9.3,9.3,0,0,0,3.61-3.51,9.67,9.67,0,0,0,1.32-5A6.9,6.9,0,0,0,83.85,73.62Zm-4.38,6.79a7.12,7.12,0,0,1-.36.67,5.51,5.51,0,0,1-1.38,1.54,4.1,4.1,0,0,1-2.54.86,3,3,0,0,1-2.25-.89,3.49,3.49,0,0,1-.87-2.54,7.11,7.11,0,0,1,.6-2.88,5.74,5.74,0,0,1,1.7-2.24,4,4,0,0,1,2.54-.85,3.12,3.12,0,0,1,2.28.9,3.06,3.06,0,0,1,.81,1.6,5.06,5.06,0,0,1,.09,1A6.7,6.7,0,0,1,79.47,80.41Z"/><path class="cls-2" d="M223.64,80a10.86,10.86,0,0,0,.36-2.83V76.9h0a7.21,7.21,0,0,0-.85-3.3,6,6,0,0,0-2.39-2.38,7.13,7.13,0,0,0-3.51-.86,9.16,9.16,0,0,0-4.8,1.29A9,9,0,0,0,209.84,74a8.45,8.45,0,0,0-.78,1.22,9.47,9.47,0,0,0-.73,1.7h0a10.75,10.75,0,0,0-.5,3.09v.21a7.4,7.4,0,0,0,.83,3.56A5.88,5.88,0,0,0,211,86.13a7,7,0,0,0,3.49.85,9.32,9.32,0,0,0,4.82-1.28,8.94,8.94,0,0,0,2.2-1.8l-3.18-2.69a5.35,5.35,0,0,1-1.09,1.23,3.7,3.7,0,0,1-2.4.88,2.76,2.76,0,0,1-2.13-.92,3.67,3.67,0,0,1-.82-2.39v0Zm-11.17-3.1s0,0,0,0a4.68,4.68,0,0,1,.2-.45,5.69,5.69,0,0,1,1.4-1.85,3.58,3.58,0,0,1,2.4-.88,2.81,2.81,0,0,1,2.16.93,3.3,3.3,0,0,1,.77,1.64,4.6,4.6,0,0,1,.07.66h-7Z"/><path class="cls-1" d="M96,82.64a4.11,4.11,0,0,1-2.55.86,3,3,0,0,1-2.26-.9,3.48,3.48,0,0,1-.87-2.54,7.21,7.21,0,0,1,.6-2.9,5.76,5.76,0,0,1,1.71-2.24,4,4,0,0,1,2.54-.86,3.12,3.12,0,0,1,2.3.91,3,3,0,0,1,.81,1.6l4.12-2.49a3.62,3.62,0,0,0-.25-.48,6.2,6.2,0,0,0-2.54-2.4,8,8,0,0,0-3.73-.85,10.27,10.27,0,0,0-5.11,1.29A9.44,9.44,0,0,0,87.2,75.2a9.77,9.77,0,0,0-1.31,5,7.16,7.16,0,0,0,.88,3.57,6.13,6.13,0,0,0,2.51,2.38A8,8,0,0,0,93,87a10.4,10.4,0,0,0,5.12-1.28A9.55,9.55,0,0,0,100.37,84l-3.13-2.66A5.71,5.71,0,0,1,96,82.64Z"/><polygon class="cls-1" points="112.67 78.51 117.83 86.97 112.5 86.96 109.14 81.29 107.56 78.57 105.37 86.97 100.95 86.97 107.05 64.06 112.38 61.51 107.97 77.12 110.17 75.11 115.37 70.39 120.98 70.35 112.67 78.51"/><path class="cls-2" d="M187.53,78.58l-1,3.83h1.32L186.72,87h-2.09a2.67,2.67,0,0,1-2.58-3.34l.31-1.23,4.82-18,4.94-2.91-4.21,15.64Z"/><path class="cls-1" d="M149.11,70.62,148,74.68l-3.76,0-.63,2.36-.38,1.43-1,3.87h1.34L142.43,87h-2.11a2.69,2.69,0,0,1-2.6-3.37l.31-1.24,2.05-7.65v0l-3.76,0,1.09-4.06,3.76,0,1.71-6.41,5-2.7-2.52,9.11v0Z"/><polygon class="cls-3" points="142.94 74.48 142.93 74.52 142.49 74.52 142.49 74.49 142.94 74.48"/><polygon class="cls-3" points="142.94 74.48 142.93 74.52 142.49 74.52 142.49 74.49 142.94 74.48"/><path class="cls-2" d="M178.52,70.38l-.13.46-.11.39-.08,0a8,8,0,0,0-3.74-.86,10.21,10.21,0,0,0-5.12,1.29,9.42,9.42,0,0,0-3.6,3.57,9.78,9.78,0,0,0-1.31,5,7.06,7.06,0,0,0,.89,3.57,6,6,0,0,0,2.51,2.38l0,0a5.58,5.58,0,0,0,5.74-.47,9.55,9.55,0,0,0,.89-.71l-.55,2H178l4.43-16.14.13-.46Zm-1.91,6.9-1.07,3.89a2.65,2.65,0,0,1-1,1.45h0a4.1,4.1,0,0,1-2.54.86,3.29,3.29,0,0,1-1.6-.38,3.6,3.6,0,0,1-.67-.51,3.53,3.53,0,0,1-.88-2.56,7.22,7.22,0,0,1,.61-2.9,5.76,5.76,0,0,1,1.71-2.24,4,4,0,0,1,2.55-.87A3.09,3.09,0,0,1,176,75h0A2.39,2.39,0,0,1,176.61,77.28Z"/><path class="cls-2" d="M174.52,57.45l-1.7,5.45a2.3,2.3,0,0,1-.35.15,7.41,7.41,0,0,0-1.06.69A16.79,16.79,0,0,0,169,66.1a36.67,36.67,0,0,0-4,5.65c-1.37,2.34-2.56,4.77-3.77,7.2l-3.32,6.66L157.24,87h-2.08l-1.54-25.49h4.27l.85,13.94a65.53,65.53,0,0,1,5-8.94c2.33-3.25,5.17-6.44,8.79-8.28A7.53,7.53,0,0,1,174.52,57.45Z"/><path class="cls-2" d="M207.23,70.35l-1.93,8.1-.4,1.69L203.35,87h-4.43l.43-1.9c-.2.2-.43.4-.66.59a5.32,5.32,0,0,1-7.55-.93c-1.37-1.64-1.1-3.27-.66-5.18l.47-2.07L192,73l.48-2.11.13-.54h4.48l-.61,2.55-1.32,5.55-.41,1.69-.18.82a1.24,1.24,0,0,0,.26,1.08,2.94,2.94,0,0,0,2.28,1,3.77,3.77,0,0,0,2.57-1s0,0,0,0a1.92,1.92,0,0,0,.6-1l1.51-6.53,1-4.19Z"/><path class="cls-2" d="M191.54,74.89l-1.15,4.33"/><line x1="151.11" y1="90.72" x2="151.11" y2="90.72"/><path class="cls-1" d="M134.76,80a10.86,10.86,0,0,0,.36-2.83V76.9h0a7.21,7.21,0,0,0-.85-3.3,6,6,0,0,0-2.39-2.39,7.19,7.19,0,0,0-3.5-.85,9.17,9.17,0,0,0-4.81,1.29A9,9,0,0,0,121,74a10.11,10.11,0,0,0-1.51,2.92h0A10.75,10.75,0,0,0,119,80v.21a7.29,7.29,0,0,0,.84,3.56,5.79,5.79,0,0,0,2.36,2.37,7,7,0,0,0,3.49.84,9.31,9.31,0,0,0,4.82-1.27,9.13,9.13,0,0,0,2.2-1.79l-3.18-2.7a5.35,5.35,0,0,1-1.09,1.23,3.7,3.7,0,0,1-2.4.88,2.74,2.74,0,0,1-2.12-.91A3.66,3.66,0,0,1,123,80v0Zm-11.17-3.1s0,0,0,0c.07-.16.13-.31.2-.45a5.69,5.69,0,0,1,1.4-1.85,3.58,3.58,0,0,1,2.4-.88,2.81,2.81,0,0,1,2.16.93,3.3,3.3,0,0,1,.77,1.64,6.62,6.62,0,0,1,.08.66h-7Z"/><path class="cls-1" d="M69.82,66.35a6.39,6.39,0,0,0-3.75-4.62,7.59,7.59,0,0,0-2.4-.48l-.71,0-7.74,0s0,0,0,0h0a.8.8,0,0,1,.29.84h0L48.75,87h4.08l2.25-8.56L60,78.15a12.35,12.35,0,0,0,2.16-.44C66.82,76.31,70.92,71.4,69.82,66.35Zm-8,7a8.21,8.21,0,0,1-1.1.21l-4.34.21,2.46-8.88h3.73a4.12,4.12,0,0,1,1.21.23,3.11,3.11,0,0,1,1.89,2.22C66.2,69.73,64.13,72.64,61.79,73.32Z"/><polygon class="cls-2" points="53.07 60.89 52.14 63.96 17.35 63.96 16.63 61.29 16.52 60.89 15.74 57.98 9.46 57.98 8.63 54.91 18.1 54.91 18.92 57.98 19.7 60.89 53.07 60.89"/><polygon class="cls-2" points="46.61 83.54 45.79 86.61 23.44 86.61 22.61 83.54 46.61 83.54"/><path class="cls-1" d="M35.55,64H23c.41-1,.81-2,1.18-3.07H36.63C36.25,61.91,35.86,62.93,35.55,64Z"/><path class="cls-2" d="M51.07,67,50.25,70l-.6,2.22-.83,3.08H41.29l-.83-3.08h6L47.06,70H22.16l1.51,5.63.5,1.86H48.23l-.82,3.07H21.81L21,77.51l-.48-1.78L19,70.19,19,70,18.15,67h3.18l.11.39.21-.39Z"/><path class="cls-1" d="M40.79,75.34s-8,.11-17.32.33h0l-3.2.09c-7.62.2-15.56.48-20.27.83a43.78,43.78,0,0,0,5.7-1c.85-.2,1.76-.44,2.72-.73a44.13,44.13,0,0,0,9.24-3.91,9.31,9.31,0,0,0,1.11-.74L19,70H36.51a6.78,6.78,0,0,0,3.38,2.45h0a.21.21,0,0,1,.13.13c.07.28.28,1.09.49,1.81l.09.29C40.67,75,40.73,75.16,40.79,75.34Z"/><path class="cls-1" d="M79.58,13.58A15.88,15.88,0,0,0,70.7,1.63a19.18,19.18,0,0,0-6-1.51C64.1.06,63.5,0,62.9,0H43.28a.05.05,0,0,0,0,.09,2.23,2.23,0,0,1,.69,2.4h0a.14.14,0,0,0,0,.06l-.32.92c-.21.64-.43,1.28-.65,1.92q-1.73,5.12-3.47,10.22L34.23,31.07q-1.83,5.34-3.65,10.69l-2,5.9C27.41,51,26.37,54.55,25.22,58H37.67c.35-1,.7-2,1-2.92L56.51,5.14,48.3,34.91c20.3-20.56,22.31-2.22,22.31-2.22-3.68-14.49-14.89-2.52-23.09,9a68.11,68.11,0,0,0,11.3-.86C70.72,38,81.71,26.28,79.58,13.58ZM60.14,24.65c-2.54.69-5.29.55-7.89.61L58,5.09a16.35,16.35,0,0,1,7.2.76,7.57,7.57,0,0,1,4.3,5.57C70.68,17.43,65.68,23.12,60.14,24.65Z"/><path class="cls-2" d="M70.61,32.69c-3.68-14.49-14.89-2.52-23.09,9-5.23,7.38-9.24,14.6-9.27,14.66l.46-1.31L56.51,5.14,48.3,34.91C68.6,14.35,70.61,32.69,70.61,32.69Z"/><path class="cls-1" d="M44,89.07a4.19,4.19,0,1,0,1.18,5.8A4.19,4.19,0,0,0,44,89.07Zm-.66,4.58a2,2,0,1,1-.56-2.74A2,2,0,0,1,43.34,93.65Z"/><path class="cls-1" d="M30,89.07a4.18,4.18,0,1,0,1.19,5.8A4.18,4.18,0,0,0,30,89.07Zm-.65,4.58a2,2,0,1,1-.56-2.74A2,2,0,0,1,29.31,93.65Z"/></g></g></svg>